<svg version="1.1" id="Layer_1" xmlns="http://www.w3.org/2000/svg" xmlns:xlink="http://www.w3.org/1999/xlink" x="0px" y="0px"
	 width="100%" viewBox="0 0 800 800" enable-background="new 0 0 800 800" xml:space="preserve">
<path fill="#FEFFFF" opacity="1.000000" stroke="none" 
	d="
M514.000000,801.000000 
	C342.666656,801.000000 171.833328,801.000000 1.000000,801.000000 
	C1.000000,534.333313 1.000000,267.666656 1.000000,1.000000 
	C267.666656,1.000000 534.333313,1.000000 801.000000,1.000000 
	C801.000000,267.666656 801.000000,534.333313 801.000000,801.000000 
	C705.500000,801.000000 610.000000,801.000000 514.000000,801.000000 
M549.009033,511.972626 
	C549.009033,511.972626 548.972168,511.941620 549.389038,511.451447 
	C549.590149,510.636780 549.791321,509.822113 550.500610,508.563110 
	C553.460388,503.572052 557.344727,500.420441 563.584290,502.087677 
	C566.733337,502.929047 569.463440,502.600922 569.986023,498.833160 
	C570.550903,494.760101 567.902527,493.182098 564.286621,492.974304 
	C559.052856,492.673584 555.162231,495.319885 551.619324,498.827820 
	C550.812622,499.626587 549.440796,499.854614 548.627441,499.581909 
	C548.654297,496.289185 547.380066,493.894958 543.779480,494.011261 
	C540.364380,494.121582 539.498596,496.727020 539.486816,499.629669 
	C539.433960,512.612671 539.375366,525.596191 539.447144,538.578735 
	C539.464172,541.666687 540.616516,544.505432 544.408020,543.872620 
	C548.208069,543.238403 549.734131,540.836304 548.010498,536.221680 
	C547.964844,535.139221 547.919250,534.056763 548.036255,532.296021 
	C548.168884,531.195374 548.301514,530.094727 548.686035,528.095825 
	C548.708557,523.066284 548.731079,518.036804 548.994690,512.524048 
	C548.983948,512.344421 548.973206,512.164734 549.009033,511.972626 
M401.134369,563.957397 
	C401.134369,563.957397 400.994019,563.990784 400.450897,563.515442 
	C398.111145,560.872253 395.953735,561.871826 393.202301,564.133362 
	C390.373688,568.905640 393.623535,570.464417 397.192810,572.217529 
	C398.601654,572.909363 399.492676,574.655640 400.619507,575.921814 
	C399.083405,576.911255 397.588104,577.975708 395.987488,578.846558 
	C395.476074,579.124817 394.685547,578.890076 394.022736,578.890076 
	C397.205780,581.528992 400.197113,580.817993 401.916382,577.813293 
	C403.750702,574.607483 402.089874,572.214233 398.723328,570.851807 
	C396.034149,569.763367 392.609406,568.954163 395.347961,564.298767 
	C397.233490,564.186218 399.119049,564.073730 401.134369,563.957397 
M141.761108,574.619385 
	C142.356201,575.747681 142.951294,576.876038 143.546387,578.004333 
	C143.901077,577.848328 144.255768,577.692261 144.610443,577.536255 
	C144.413696,576.381165 144.216949,575.226013 144.043747,573.356567 
	C144.236267,570.746399 144.428772,568.136292 144.711533,564.302368 
	C140.874924,567.665283 140.128723,570.523865 141.761108,574.619385 
M418.024780,577.976624 
	C418.024780,577.976624 417.956482,577.967102 417.522247,578.638184 
	C419.805756,581.290466 422.562012,581.285034 424.713318,578.968384 
	C427.521515,575.944275 428.005157,572.370850 424.994751,569.004883 
	C424.994751,569.004883 425.059387,569.006042 424.852509,568.267273 
	C422.576935,568.160034 420.301392,568.052734 417.807159,568.479858 
	C417.537476,568.988953 417.267822,569.498108 416.326965,570.255554 
	C415.519867,573.151794 414.125092,576.176208 418.024780,577.976624 
M743.882874,579.729919 
	C745.237915,579.729919 746.593018,579.729919 747.674927,579.729919 
	C747.674927,575.233276 747.674927,571.307861 747.674927,567.009216 
	C746.024536,571.690247 744.552917,575.864136 742.752625,580.250610 
	C742.531250,580.302246 742.309875,580.353821 742.559570,580.295654 
	C742.463745,580.362610 742.740295,580.169373 743.882874,579.729919 
M218.061569,579.659058 
	C220.052307,579.433777 222.043045,579.208496 224.611450,579.107910 
	C224.903366,579.257263 225.195297,579.406677 225.487213,579.556091 
	C225.487213,573.473938 225.487213,567.391785 225.487213,560.044250 
	C223.989426,563.498779 223.042419,565.682922 222.038132,567.999207 
	C226.278702,570.268188 224.880798,574.152649 222.999161,577.973694 
	C221.345001,578.298523 219.690842,578.623291 218.016434,578.066284 
	C218.016434,574.615845 218.016434,571.165466 218.016434,567.244385 
	C212.875214,574.608154 212.917313,576.291870 218.061569,579.659058 
M630.018860,577.980957 
	C630.018860,577.980957 629.952820,577.973877 629.610962,578.663147 
	C631.957581,581.220215 634.721680,581.158081 636.869568,578.884277 
	C639.655029,575.935425 639.710876,572.170837 637.445679,568.897400 
	C635.526184,566.123596 632.742920,565.801147 629.331604,568.077393 
	C628.123474,570.591675 625.472473,572.866089 628.071777,576.726990 
	C628.721252,577.167175 629.370728,577.607300 630.018860,577.980957 
M517.880127,568.843628 
	C515.973816,572.790161 515.398193,576.524292 520.049805,579.962097 
	C523.229370,581.332947 526.180298,580.248596 526.820435,577.275696 
	C527.436584,574.413940 526.839050,570.876526 525.539978,568.245728 
	C525.096802,567.348450 520.904907,568.302429 517.880127,568.843628 
M135.488785,570.791016 
	C135.425568,570.109253 135.362350,569.427551 136.105270,568.826111 
	C136.619797,568.246216 137.134308,567.666260 137.648834,567.086365 
	C136.852661,566.811829 136.056488,566.537354 135.152802,565.920105 
	C135.152802,565.920105 135.276367,565.582825 135.749283,564.907776 
	C135.838821,564.648071 135.928375,564.388306 136.841354,563.979126 
	C138.453613,563.979126 140.065872,563.979126 141.678116,563.979126 
	C141.696274,563.675415 141.714432,563.371643 141.732590,563.067932 
	C139.144226,562.910645 136.555847,562.753418 133.972046,562.596375 
	C133.972046,568.755188 133.972046,574.281799 133.972046,579.898926 
	C136.091446,579.898926 137.865234,579.898926 139.639008,579.898926 
	C134.976715,579.579407 134.444962,576.712769 135.819946,572.990662 
	C136.403290,572.608154 136.986649,572.225647 137.570038,571.843140 
	C137.042160,571.563538 136.514297,571.283997 135.488785,570.791016 
M91.789658,571.813721 
	C91.243866,575.376648 91.842621,578.335938 96.502388,580.618103 
	C94.905701,577.919678 93.957016,576.316345 92.609673,574.039307 
	C95.464355,574.039307 97.498650,574.371033 99.333908,573.910217 
	C100.372276,573.649475 101.083740,572.086975 101.979340,570.340027 
	C101.392769,567.483093 100.245514,564.287109 96.922394,565.282654 
	C94.891800,565.890869 93.606880,568.988403 91.789658,571.813721 
M720.757812,579.815186 
	C725.720093,575.813843 725.428711,570.603943 720.000061,566.408569 
	C720.000061,566.408569 719.989380,565.992004 720.264954,565.886902 
	C720.179382,565.928162 720.093750,565.969360 719.198364,566.005615 
	C713.786438,564.964172 713.502869,569.960327 712.775330,572.684448 
	C712.197510,574.848389 714.297729,577.943665 715.680237,580.355347 
	C717.114136,582.856567 718.796082,582.205139 720.757812,579.815186 
M378.395599,388.676392 
	C366.303925,415.214630 345.875824,429.275116 316.526031,429.507355 
	C287.863007,429.734222 259.191833,429.948761 230.536209,429.463104 
	C222.361694,429.324554 217.772385,433.313019 212.851288,439.141663 
	C214.846054,439.255951 216.304169,439.411530 217.762360,439.412415 
	C251.092224,439.432709 284.422119,439.461334 317.751953,439.437042 
	C374.080536,439.396027 410.222076,380.589661 384.316986,330.520203 
	C370.660828,304.125488 348.170319,290.882324 318.481567,290.171844 
	C304.155548,289.828979 289.801544,290.296143 275.496887,289.620209 
	C270.601624,289.388885 265.196564,287.744568 261.111450,285.079559 
	C252.277420,279.316498 248.861389,266.717072 252.233597,256.548737 
	C255.487854,246.736053 264.423340,240.180481 275.494049,240.108551 
	C308.156982,239.896317 340.821198,239.876633 373.484894,239.783264 
	C375.926300,239.776291 378.367767,239.782349 381.338226,239.782349 
	C381.144745,236.184357 380.987915,233.267685 380.824280,230.225037 
	C379.891541,230.060120 379.264313,229.851791 378.637299,229.852325 
	C343.306854,229.882111 307.971344,229.641068 272.650879,230.258163 
	C266.755463,230.361160 260.164886,233.102783 255.213913,236.529785 
	C242.577286,245.276672 237.941330,261.631073 242.740738,276.090912 
	C247.489548,290.398315 260.614502,299.837280 276.210419,299.958191 
	C290.375732,300.068024 304.542847,299.938263 318.708344,300.033020 
	C328.676270,300.099701 338.143005,302.383240 347.107941,306.813873 
	C373.481354,319.848114 391.440125,353.016022 378.395599,388.676392 
M517.794434,239.691986 
	C509.322357,232.841736 499.570557,230.100235 488.499481,230.180862 
	C488.759216,233.747665 488.982330,236.811111 489.202148,239.829514 
	C490.914978,239.971207 492.079437,240.033905 493.235535,240.168167 
	C514.135681,242.595306 528.031860,261.377838 524.057983,281.818573 
	C520.857178,298.283142 506.570831,309.687805 488.746155,309.759216 
	C461.252838,309.869385 433.758942,309.839630 406.265289,309.868835 
	C404.523285,309.870697 402.781250,309.869080 401.197449,309.869080 
	C401.197449,353.389954 401.197449,396.133209 401.197449,438.855682 
	C417.452484,438.855682 433.371155,438.855682 449.376587,438.855682 
	C449.376587,413.558685 449.376587,388.543304 449.376587,363.700684 
	C446.013855,363.700684 443.117432,363.700684 439.852417,363.700684 
	C439.852417,385.731506 439.852417,407.340088 439.852417,429.097961 
	C430.067383,429.097961 420.665924,429.097961 411.035034,429.097961 
	C411.035034,392.613251 411.035034,356.406250 411.035034,319.805023 
	C412.782867,319.805023 414.253754,319.806396 415.724670,319.804810 
	C439.718964,319.778900 463.713531,319.808136 487.707214,319.673248 
	C491.842133,319.649994 496.109680,319.459900 500.082428,318.438538 
	C517.520935,313.955048 529.106873,302.861664 533.462036,285.480164 
	C537.958862,267.533569 531.966003,252.402252 517.794434,239.691986 
M460.500000,189.988846 
	C404.700897,189.988846 348.901794,189.988846 292.602753,189.988846 
	C292.437866,193.419662 292.291870,196.456635 292.126251,199.902390 
	C294.599854,199.902390 296.403778,199.901932 298.207703,199.902451 
	C362.697021,199.920868 427.186890,199.785431 491.675446,200.014755 
	C531.301819,200.155655 567.982727,233.918167 564.348877,281.679382 
	C563.356445,294.723785 558.816223,306.538849 551.633301,317.701538 
	C554.038879,319.999786 556.252991,322.115082 558.765137,324.515137 
	C560.144897,322.482025 561.204163,321.021820 562.160400,319.496948 
	C573.781738,300.964630 576.419250,280.860992 573.098511,259.529633 
	C567.682983,224.742462 537.427429,194.815674 502.416931,191.114319 
	C488.889496,189.684158 475.145386,190.303314 460.500000,189.988846 
M336.320709,394.882172 
	C350.395599,385.041809 356.230560,370.011505 351.616089,355.482758 
	C346.324158,338.821228 334.355316,330.081024 316.548859,329.979004 
	C302.719269,329.899780 288.871246,330.352142 275.063019,329.791046 
	C248.274384,328.702423 228.351028,316.284698 217.207886,291.658783 
	C213.588898,283.660950 212.277496,274.618958 209.877975,265.936432 
	C207.588684,265.936432 204.804871,265.936432 201.990982,265.936432 
	C201.854309,266.622711 201.683197,267.092896 201.677673,267.565002 
	C201.270676,302.327454 230.683029,335.855194 265.444611,338.873291 
	C282.487823,340.352997 299.722229,339.675873 316.871216,339.878937 
	C331.474518,340.051880 342.851746,350.706177 342.983521,364.489166 
	C343.123871,379.170715 333.085632,389.037872 317.549500,389.160919 
	C300.054840,389.299469 282.558258,389.200470 265.062531,389.204041 
	C257.232086,389.205658 255.052063,390.777954 251.976074,398.843292 
	C252.662781,398.914764 253.275894,399.033020 253.889313,399.034576 
	C276.216278,399.091766 298.547211,399.375000 320.867157,399.002319 
	C325.812286,398.919769 330.718658,396.515381 336.320709,394.882172 
M402.989502,271.709320 
	C397.613312,282.357819 403.066467,291.953278 414.836060,292.198120 
	C424.804291,292.405487 434.782013,292.359039 444.752228,292.207153 
	C453.072205,292.080414 458.778473,286.635956 458.786530,279.201965 
	C458.794952,271.430786 452.981506,265.886658 444.562195,265.795593 
	C434.918549,265.691315 425.273224,265.744659 415.629456,265.648254 
	C410.693268,265.598938 406.469177,266.965302 402.989502,271.709320 
M427.710938,539.174805 
	C427.989746,541.913696 428.923828,544.197449 432.186768,543.999512 
	C435.615875,543.791504 436.435547,541.354553 436.441376,538.384216 
	C436.451843,533.064026 436.605408,527.741821 436.493774,522.424744 
	C436.435486,519.648499 437.470856,518.502380 440.256378,518.580872 
	C444.077393,518.688538 447.904663,518.550476 451.728790,518.578979 
	C460.868500,518.647095 467.326782,514.527222 470.822357,506.098083 
	C476.559082,492.264618 466.917358,475.674225 452.134247,476.896179 
	C446.683624,477.346741 441.164612,476.963806 435.676788,476.971436 
	C428.510468,476.981415 427.673035,477.789307 427.671539,485.014648 
	C427.667847,502.805206 427.701630,520.595764 427.710938,539.174805 
M712.865906,516.420776 
	C712.201599,513.510925 711.918518,510.444702 710.801392,507.720551 
	C707.470276,499.597229 701.431763,494.345703 692.643921,493.147247 
	C684.002869,491.968842 676.456482,495.069641 672.005432,502.460999 
	C669.124634,507.244934 667.232361,513.178528 666.781311,518.749573 
	C665.975830,528.697754 669.877808,537.209778 679.140564,541.981812 
	C688.415405,546.760010 697.774719,546.423218 706.494141,540.222351 
	C708.931396,538.489136 711.904541,536.330505 709.556152,532.934387 
	C707.322571,529.704224 704.483887,531.744995 702.176086,533.400146 
	C697.802002,536.537231 692.955811,537.017578 687.887268,536.118103 
	C680.842957,534.867920 675.860840,528.906006 676.271606,522.033020 
	C686.386169,522.033020 696.526245,521.999023 706.665894,522.052002 
	C710.069519,522.069763 712.610168,521.188904 712.865906,516.420776 
M655.469055,540.621033 
	C655.313416,529.320312 655.719299,517.975098 654.828064,506.732635 
	C654.088684,497.406342 647.729004,492.214661 638.456543,493.173401 
	C633.305176,493.706024 628.389648,496.520660 623.864441,498.130188 
	C621.855347,496.905670 619.405212,494.149231 617.173035,494.315796 
	C612.579651,494.658478 613.517883,499.026215 613.508240,502.248413 
	C613.472900,514.075745 613.501648,525.903320 613.532471,537.730774 
	C613.540833,540.934814 614.005005,544.023926 618.188904,543.960876 
	C622.317505,543.898743 622.757446,540.838867 622.760559,537.625916 
	C622.768005,529.962402 622.732849,522.298645 622.787231,514.635437 
	C622.844788,506.531525 628.135071,501.530426 636.496338,501.574738 
	C643.068970,501.609558 646.439636,505.924896 646.456482,514.333252 
	C646.472534,522.329712 646.312683,530.332886 646.626282,538.317566 
	C646.698914,540.168457 648.050842,543.081726 649.408081,543.479553 
	C650.997681,543.945496 653.236572,542.195984 655.469055,540.621033 
M176.760757,532.442993 
	C176.761551,535.273682 176.601501,538.118347 176.846405,540.927734 
	C176.937820,541.976379 177.974411,542.942566 178.580002,543.946350 
	C179.259552,542.955872 180.529678,541.964233 180.527664,540.975220 
	C180.506805,530.659302 180.785751,520.303711 179.971054,510.039429 
	C179.160309,499.825012 170.068878,493.635803 160.332916,496.644470 
	C155.037064,498.281067 150.313965,501.771118 144.968933,504.618927 
	C142.611542,499.850494 138.034515,496.256897 131.266037,495.953613 
	C124.459282,495.648682 119.712845,499.714386 114.756599,504.601227 
	C114.615616,502.936218 114.684776,502.251526 114.483223,501.658936 
	C113.917717,499.996277 113.240562,498.371613 112.607452,496.731964 
	C111.996025,498.383759 110.874611,500.029327 110.854301,501.688385 
	C110.699402,514.342102 110.693718,526.999146 110.844467,539.652771 
	C110.861267,541.063354 112.147629,542.458740 112.845253,543.861206 
	C113.397415,542.475098 114.399117,541.098389 114.428093,539.701416 
	C114.604218,531.212463 114.385765,522.713867 114.637321,514.228455 
	C114.875633,506.189423 122.985451,499.174500 131.241257,499.478241 
	C138.513290,499.745789 142.967850,505.067383 143.099823,513.988953 
	C143.225433,522.479553 143.030670,530.975647 143.214294,539.464111 
	C143.246429,540.949524 144.451965,542.409546 145.115555,543.881287 
	C145.755081,542.421326 146.916412,540.972473 146.947754,539.499573 
	C147.124847,531.177368 146.878159,522.845825 147.073547,514.524475 
	C147.257553,506.687897 155.142044,499.636719 163.578201,499.404602 
	C170.407913,499.216675 175.653351,503.949921 176.418793,511.997711 
	C177.031281,518.437378 176.682907,524.968445 176.760757,532.442993 
M374.057037,542.754761 
	C377.776825,542.888977 381.585266,543.528564 385.171204,542.899475 
	C386.535431,542.660217 387.388428,539.506287 388.474426,537.680725 
	C386.773926,536.897217 385.019653,536.210571 383.387238,535.304382 
	C381.578491,534.300354 378.417603,533.158691 378.366455,531.968506 
	C377.953735,522.367371 378.135162,512.740601 378.135162,502.500153 
	C381.122070,502.500153 383.776367,503.056244 385.995880,502.313446 
	C387.595856,501.777924 389.616516,499.503845 389.603149,498.021942 
	C389.590790,496.657257 387.321625,494.627747 385.672852,494.130524 
	C383.436371,493.456085 380.843750,493.962677 378.010559,493.962677 
	C378.010559,491.202026 378.595764,488.824646 377.850311,486.987152 
	C377.063080,485.046753 375.007263,483.621033 373.505676,481.970490 
	C371.999786,483.638092 369.902039,485.079437 369.153839,487.036682 
	C368.400330,489.007843 368.987976,491.491730 368.987976,493.571381 
	C364.980988,494.518799 359.807800,492.361328 359.637115,497.997681 
	C359.448273,504.232910 365.486786,501.640289 369.000061,503.193756 
	C369.000061,512.732971 368.601929,522.239258 369.202057,531.682068 
	C369.432098,535.302124 371.941040,538.777344 374.057037,542.754761 
M592.013611,510.561005 
	C592.013611,508.097717 592.013611,505.634460 592.013611,502.569000 
	C594.812927,502.569000 597.313232,503.139801 599.330811,502.397980 
	C601.114929,501.741974 602.361389,499.623932 603.845276,498.151398 
	C602.309082,496.752838 600.984802,494.748108 599.180237,494.117310 
	C597.165039,493.412872 594.713867,493.955719 592.059021,493.955719 
	C592.059021,491.417877 592.043396,489.612274 592.062500,487.807037 
	C592.096741,484.569000 590.969666,482.024963 587.372742,482.037079 
	C583.973572,482.048553 583.044495,484.614044 582.994995,487.568329 
	C582.962402,489.516418 582.988892,491.465485 582.988892,493.314636 
	C579.220215,494.666779 573.582886,492.263336 573.660095,498.251007 
	C573.734619,504.034607 579.353149,501.818024 582.963318,503.268097 
	C582.963318,506.493042 582.936096,509.803802 582.968994,513.113953 
	C583.040100,520.276306 582.775452,527.466858 583.329346,534.592896 
	C583.941895,542.472839 593.198242,546.993042 599.730957,542.723450 
	C601.161743,541.788391 601.566040,539.282776 602.443054,537.500427 
	C600.876099,536.729370 599.222778,535.174072 597.758423,535.335144 
	C593.459656,535.808289 591.969482,534.073364 592.028381,530.038818 
	C592.118408,523.875122 592.030273,517.708862 592.013611,510.561005 
M72.935005,505.783020 
	C71.170433,504.853638 69.355164,504.008179 67.651215,502.978516 
	C63.265938,500.328552 61.107342,496.407806 61.565277,491.274872 
	C62.031975,486.043823 65.222450,482.784302 69.940140,481.105438 
	C78.085968,478.206573 85.552589,479.256104 92.150726,485.263824 
	C93.247986,486.262878 95.097397,486.435822 96.599236,486.990509 
	C95.997421,485.323883 95.854088,483.198151 94.719475,482.065002 
	C87.295647,474.650482 72.044228,473.847321 63.718235,480.202850 
	C54.829609,486.987915 55.181190,500.385071 64.506065,506.570618 
	C66.705185,508.029358 69.173576,509.113861 71.594826,510.199432 
	C76.439369,512.371582 81.490547,514.133850 86.174026,516.601440 
	C92.129967,519.739319 94.629234,525.021912 93.482162,530.548950 
	C92.332283,536.089478 87.953354,539.901367 81.511978,540.963623 
	C73.041840,542.360352 65.819695,539.959534 59.555939,534.101807 
	C58.431519,533.050354 56.452831,532.912415 54.868553,532.352661 
	C55.543930,533.973145 55.806644,536.017090 56.963097,537.143860 
	C63.440285,543.454651 71.447968,545.802734 80.306183,544.933716 
	C89.807838,544.001526 96.409424,538.290649 97.691399,530.401855 
	C99.102173,521.720459 94.742447,514.826172 85.152870,510.709137 
	C81.350685,509.076691 77.491470,507.577087 72.935005,505.783020 
M495.609741,493.817169 
	C484.840118,498.519440 479.242645,507.382172 479.430084,519.435242 
	C479.668121,534.741028 489.851288,545.981384 503.368622,544.838074 
	C508.221832,544.427612 512.874146,541.641235 516.706238,540.266418 
	C519.034119,541.543091 521.373535,543.920715 523.554260,543.783142 
	C527.504517,543.533997 527.094299,539.760254 527.082153,536.734253 
	C527.050049,528.752625 527.062744,520.770752 527.058044,512.789001 
	C527.055237,507.966522 527.322510,503.121033 526.912720,498.333405 
	C526.757812,496.523285 525.227539,493.597046 523.989929,493.411713 
	C522.269409,493.154022 520.190125,494.920410 518.359375,495.983917 
	C517.762817,496.330475 517.463379,497.188721 516.815674,498.117523 
	C510.484741,493.629730 503.832794,491.666901 495.609741,493.817169 
M722.474731,513.503418 
	C722.465820,521.490784 722.404724,529.478577 722.473328,537.465271 
	C722.501404,540.742249 722.783813,544.162292 727.362183,543.968872 
	C731.558899,543.791504 731.714172,540.617737 731.722290,537.479797 
	C731.741333,530.158203 731.587219,522.831238 731.817017,515.516357 
	C732.111145,506.154968 738.124756,500.995300 746.954773,502.280243 
	C749.878601,502.705719 752.466125,502.596924 752.986206,498.984009 
	C753.530334,495.204742 751.179016,492.704010 747.925354,493.192627 
	C743.874146,493.800995 739.992432,495.811188 736.168457,497.510864 
	C734.838806,498.101898 733.899536,499.571381 733.809998,499.656952 
	C730.857605,497.392548 728.598328,494.231476 726.424133,494.289032 
	C721.873169,494.409393 722.569824,498.738190 722.540466,502.023132 
	C722.509277,505.517365 722.490234,509.011749 722.474731,513.503418 
M235.340469,543.552734 
	C235.557251,528.630371 235.796021,513.708130 235.920380,498.785004 
	C235.926102,498.099823 234.903748,497.406067 234.360229,496.716309 
	C233.629623,497.411377 232.406052,498.021149 232.268066,498.818756 
	C231.952713,500.641571 232.168427,502.556274 232.168427,505.562469 
	C225.877533,496.773285 218.514679,493.156433 209.052780,495.700867 
	C199.022903,498.398010 194.109253,505.717133 192.860947,515.593811 
	C191.496384,526.390259 194.133392,535.757629 203.773895,542.086670 
	C205.135361,542.980469 206.718307,543.637085 208.288574,544.096375 
	C218.153717,546.981995 225.632919,543.110107 231.043488,536.115356 
	C232.178436,538.634705 233.370377,541.280518 235.340469,543.552734 
M350.090576,511.500000 
	C350.089844,502.171143 350.050049,492.842041 350.109314,483.513550 
	C350.130402,480.194244 349.472870,477.182037 345.582336,477.065369 
	C341.705444,476.949097 340.770721,479.782410 340.781281,483.199249 
	C340.837494,501.356964 340.846771,519.514893 340.825500,537.672729 
	C340.821625,540.983765 341.379761,543.999390 345.449768,543.883423 
	C349.365784,543.771790 350.087250,540.786011 350.079681,537.487000 
	C350.060547,529.158081 350.084137,520.828979 350.090576,511.500000 
M280.252502,496.556244 
	C281.050201,497.535461 281.699890,499.126221 282.677368,499.362854 
	C284.542511,499.814423 286.594604,499.493896 289.037750,499.493896 
	C289.037750,510.666931 288.960144,521.469971 289.093781,532.270386 
	C289.126099,534.884094 289.349426,537.709900 290.370300,540.052307 
	C292.490234,544.916321 298.690582,545.534485 301.942474,541.061157 
	C300.291321,540.837158 298.566101,541.085327 297.533600,540.354614 
	C295.809540,539.134460 293.305420,537.325562 293.256195,535.700073 
	C292.894409,523.754211 293.060822,511.792236 293.060822,499.781036 
	C297.330017,499.539490 301.148682,499.323425 304.967346,499.107391 
	C305.021362,498.328796 305.075409,497.550201 305.129425,496.771576 
	C301.226990,496.357758 297.324554,495.943939 292.983398,495.483582 
	C292.983398,492.550018 293.187866,489.573242 292.900970,486.644592 
	C292.747375,485.076843 291.747589,483.592010 291.129669,482.069763 
	C290.432709,483.525452 289.287445,484.935272 289.132843,486.446442 
	C288.818390,489.520142 289.038788,492.648590 289.038788,496.101990 
	C285.967529,496.101990 283.490631,496.101990 280.252502,496.556244 
M251.875275,498.852966 
	C251.847488,512.350464 251.763550,525.848389 251.869415,539.344849 
	C251.881424,540.876465 252.960632,542.399658 253.544968,543.926758 
	C254.188873,542.306519 255.327835,540.705627 255.391739,539.062805 
	C255.682983,531.575073 255.246048,524.039856 255.871918,516.588989 
	C256.760498,506.010956 264.364166,499.396881 274.858307,499.100769 
	C275.607513,499.079620 276.334412,498.266907 277.071686,497.822296 
	C276.347748,496.913025 275.728485,495.335297 274.882935,495.202942 
	C269.394073,494.343597 264.705536,496.266876 260.915894,500.210144 
	C259.160553,502.036621 257.741486,504.186249 255.378860,507.197784 
	C255.378860,503.583862 255.557663,501.256927 255.333618,498.969421 
	C255.053223,496.106476 253.759521,495.944214 251.875275,498.852966 
M264.171173,578.316345 
	C262.158936,578.510498 260.146667,578.704712 258.135101,578.903687 
	C262.115173,581.357117 265.739380,581.111267 267.325623,578.001770 
	C269.395905,573.943237 267.061890,572.070374 263.556885,570.420288 
	C261.959686,569.668335 260.992950,567.577271 259.740265,566.093567 
	C261.570435,565.397583 263.382660,564.646851 265.240997,564.036743 
	C265.846985,563.837769 266.573334,564.005493 268.709534,564.005493 
	C266.432312,562.995544 265.394409,562.096252 264.718475,562.315125 
	C262.394958,563.067383 259.260803,563.620422 258.174591,565.344849 
	C256.580963,567.874939 258.250702,570.398621 261.287018,571.482666 
	C262.066559,571.760925 262.810944,572.143127 263.558716,572.503967 
	C266.159180,573.758728 267.127014,575.435547 264.171173,578.316345 
M164.214310,578.742126 
	C160.950806,579.279358 160.271530,577.162231 160.041779,574.637817 
	C159.885101,572.916382 159.804779,571.187927 159.690323,569.462646 
	C159.008438,579.488403 160.353958,580.871338 168.253265,579.506958 
	C168.253265,575.393188 168.253265,571.347961 168.253265,567.302673 
	C168.114014,567.347046 167.974777,567.391479 167.835526,567.435913 
	C166.919235,571.064819 166.002930,574.693726 164.214310,578.742126 
M609.509338,562.463196 
	C608.315247,563.185181 606.136597,563.846008 606.087280,564.639221 
	C605.772705,569.697510 605.927124,574.784851 605.927124,579.862671 
	C606.323914,579.878723 606.720642,579.894836 607.117432,579.910889 
	C607.311707,577.592224 607.506042,575.273560 607.711182,572.825134 
	C610.029663,572.565857 612.026062,572.342651 614.022461,572.119385 
	C614.005615,571.851990 613.988770,571.584595 613.971924,571.317261 
	C611.959045,571.141968 609.946228,570.966675 607.674561,570.768860 
	C607.674561,568.512878 607.674561,566.467529 607.674561,564.177734 
	C610.101318,564.032898 612.269409,563.903503 614.437439,563.774109 
	C614.443420,563.488831 614.449402,563.203552 614.455383,562.918274 
	C613.084045,562.806641 611.712708,562.695068 609.509338,562.463196 
M693.720215,569.994202 
	C692.295532,567.449036 690.870789,564.903870 689.446045,562.358765 
	C689.207947,562.507996 688.969910,562.657288 688.731812,562.806519 
	C690.684143,568.431152 692.636414,574.055786 694.247864,578.698364 
	C695.866272,573.851196 697.728149,568.274963 700.024048,561.398743 
	C697.687317,565.130615 696.057983,567.732788 693.720215,569.994202 
M314.762665,573.036621 
	C314.104004,574.814453 313.445343,576.592346 312.786682,578.370178 
	C315.676544,579.088013 318.566406,579.805847 321.810913,580.611755 
	C321.810913,576.723938 321.810913,573.969360 321.810913,571.097473 
	C319.545563,571.734070 317.534668,572.299194 314.762665,573.036621 
M70.199028,567.708740 
	C69.804962,566.053589 69.410896,564.398376 68.879677,562.167114 
	C67.410843,566.641296 66.094658,570.650452 64.793541,574.613770 
	C63.981953,573.979980 63.350643,573.486938 61.619469,572.135010 
	C62.650517,575.719177 63.299541,577.975342 63.948566,580.231506 
	C64.363678,580.250305 64.778786,580.269104 65.193893,580.287903 
	C66.095802,576.687378 66.898285,573.056885 67.969933,569.507629 
	C68.236084,568.626099 69.373184,568.007507 70.199028,567.708740 
M289.426849,567.524292 
	C283.912445,566.248047 282.375519,566.973511 282.647552,570.405029 
	C284.224121,569.781006 285.870758,569.129211 287.517395,568.477417 
	C288.044586,570.235352 288.739838,571.963928 289.054321,573.759094 
	C289.409241,575.784973 289.421661,577.870911 289.583008,579.930725 
	C289.900909,579.894409 290.218811,579.858093 290.536713,579.821777 
	C291.099976,575.656494 291.663269,571.491272 292.220001,567.374268 
	C291.682068,567.500488 290.913116,567.680908 289.426849,567.524292 
M484.458618,566.862427 
	C483.328369,566.935547 482.198151,567.008667 481.013733,567.085327 
	C485.237854,580.011230 485.237854,580.011230 486.766632,579.981384 
	C482.795105,577.129150 482.598602,571.746704 486.283905,568.392395 
	C486.322418,568.357361 485.552582,567.434265 484.458618,566.862427 
M465.971069,567.593079 
	C465.841187,569.053589 465.834351,570.538269 465.552551,571.968872 
	C465.128967,574.119141 465.157288,577.158203 463.799438,578.102539 
	C462.408417,579.069946 459.580078,577.970642 457.476532,577.784424 
	C459.705353,582.304688 463.579163,579.442810 466.788177,579.472107 
	C466.788177,575.379578 466.788177,571.453430 465.971069,567.593079 
M281.900208,575.489136 
	C281.964966,575.630432 281.998596,575.804688 282.103333,575.903809 
	C282.207825,576.002686 282.383514,576.026428 282.528015,576.083069 
	C282.414459,575.170227 282.300934,574.257324 282.187378,573.344482 
	C282.088043,573.348572 281.988678,573.352661 281.889343,573.356750 
	C281.889343,573.922791 281.889343,574.488892 281.900208,575.489136 
M61.925533,571.516174 
	C61.925533,571.516174 62.015312,571.491150 62.015312,571.491150 
	C62.015312,571.491150 62.105865,571.514648 61.925533,571.516174 
z"/>
<path fill="#414141" opacity="1.000000" stroke="none" 
	d="
M378.560059,388.323425 
	C391.440125,353.016022 373.481354,319.848114 347.107941,306.813873 
	C338.143005,302.383240 328.676270,300.099701 318.708344,300.033020 
	C304.542847,299.938263 290.375732,300.068024 276.210419,299.958191 
	C260.614502,299.837280 247.489548,290.398315 242.740738,276.090912 
	C237.941330,261.631073 242.577286,245.276672 255.213913,236.529785 
	C260.164886,233.102783 266.755463,230.361160 272.650879,230.258163 
	C307.971344,229.641068 343.306854,229.882111 378.637299,229.852325 
	C379.264313,229.851791 379.891541,230.060120 380.824280,230.225037 
	C380.987915,233.267685 381.144745,236.184357 381.338226,239.782349 
	C378.367767,239.782349 375.926300,239.776291 373.484894,239.783264 
	C340.821198,239.876633 308.156982,239.896317 275.494049,240.108551 
	C264.423340,240.180481 255.487854,246.736053 252.233597,256.548737 
	C248.861389,266.717072 252.277420,279.316498 261.111450,285.079559 
	C265.196564,287.744568 270.601624,289.388885 275.496887,289.620209 
	C289.801544,290.296143 304.155548,289.828979 318.481567,290.171844 
	C348.170319,290.882324 370.660828,304.125488 384.316986,330.520203 
	C410.222076,380.589661 374.080536,439.396027 317.751953,439.437042 
	C284.422119,439.461334 251.092224,439.432709 217.762360,439.412415 
	C216.304169,439.411530 214.846054,439.255951 212.851288,439.141663 
	C217.772385,433.313019 222.361694,429.324554 230.536209,429.463104 
	C259.191833,429.948761 287.863007,429.734222 316.526031,429.507355 
	C345.875824,429.275116 366.303925,415.214630 378.560059,388.323425 
z"/>
<path fill="#434343" opacity="1.000000" stroke="none" 
	d="
M518.063599,239.925797 
	C531.966003,252.402252 537.958862,267.533569 533.462036,285.480164 
	C529.106873,302.861664 517.520935,313.955048 500.082428,318.438538 
	C496.109680,319.459900 491.842133,319.649994 487.707214,319.673248 
	C463.713531,319.808136 439.718964,319.778900 415.724670,319.804810 
	C414.253754,319.806396 412.782867,319.805023 411.035034,319.805023 
	C411.035034,356.406250 411.035034,392.613251 411.035034,429.097961 
	C420.665924,429.097961 430.067383,429.097961 439.852417,429.097961 
	C439.852417,407.340088 439.852417,385.731506 439.852417,363.700684 
	C443.117432,363.700684 446.013855,363.700684 449.376587,363.700684 
	C449.376587,388.543304 449.376587,413.558685 449.376587,438.855682 
	C433.371155,438.855682 417.452484,438.855682 401.197449,438.855682 
	C401.197449,396.133209 401.197449,353.389954 401.197449,309.869080 
	C402.781250,309.869080 404.523285,309.870697 406.265289,309.868835 
	C433.758942,309.839630 461.252838,309.869385 488.746155,309.759216 
	C506.570831,309.687805 520.857178,298.283142 524.057983,281.818573 
	C528.031860,261.377838 514.135681,242.595306 493.235535,240.168167 
	C492.079437,240.033905 490.914978,239.971207 489.202148,239.829514 
	C488.982330,236.811111 488.759216,233.747665 488.499481,230.180862 
	C499.570557,230.100235 509.322357,232.841736 518.063599,239.925797 
z"/>
<path fill="#414141" opacity="1.000000" stroke="none" 
	d="
M461.000000,189.988846 
	C475.145386,190.303314 488.889496,189.684158 502.416931,191.114319 
	C537.427429,194.815674 567.682983,224.742462 573.098511,259.529633 
	C576.419250,280.860992 573.781738,300.964630 562.160400,319.496948 
	C561.204163,321.021820 560.144897,322.482025 558.765137,324.515137 
	C556.252991,322.115082 554.038879,319.999786 551.633301,317.701538 
	C558.816223,306.538849 563.356445,294.723785 564.348877,281.679382 
	C567.982727,233.918167 531.301819,200.155655 491.675446,200.014755 
	C427.186890,199.785431 362.697021,199.920868 298.207703,199.902451 
	C296.403778,199.901932 294.599854,199.902390 292.126251,199.902390 
	C292.291870,196.456635 292.437866,193.419662 292.602753,189.988846 
	C348.901794,189.988846 404.700897,189.988846 461.000000,189.988846 
z"/>
<path fill="#424242" opacity="1.000000" stroke="none" 
	d="
M335.981812,395.031128 
	C330.718658,396.515381 325.812286,398.919769 320.867157,399.002319 
	C298.547211,399.375000 276.216278,399.091766 253.889313,399.034576 
	C253.275894,399.033020 252.662781,398.914764 251.976074,398.843292 
	C255.052063,390.777954 257.232086,389.205658 265.062531,389.204041 
	C282.558258,389.200470 300.054840,389.299469 317.549500,389.160919 
	C333.085632,389.037872 343.123871,379.170715 342.983521,364.489166 
	C342.851746,350.706177 331.474518,340.051880 316.871216,339.878937 
	C299.722229,339.675873 282.487823,340.352997 265.444611,338.873291 
	C230.683029,335.855194 201.270676,302.327454 201.677673,267.565002 
	C201.683197,267.092896 201.854309,266.622711 201.990982,265.936432 
	C204.804871,265.936432 207.588684,265.936432 209.877975,265.936432 
	C212.277496,274.618958 213.588898,283.660950 217.207886,291.658783 
	C228.351028,316.284698 248.274384,328.702423 275.063019,329.791046 
	C288.871246,330.352142 302.719269,329.899780 316.548859,329.979004 
	C334.355316,330.081024 346.324158,338.821228 351.616089,355.482758 
	C356.230560,370.011505 350.395599,385.041809 335.981812,395.031128 
z"/>
<path fill="#279AA5" opacity="1.000000" stroke="none" 
	d="
M403.216125,271.404388 
	C406.469177,266.965302 410.693268,265.598938 415.629456,265.648254 
	C425.273224,265.744659 434.918549,265.691315 444.562195,265.795593 
	C452.981506,265.886658 458.794952,271.430786 458.786530,279.201965 
	C458.778473,286.635956 453.072205,292.080414 444.752228,292.207153 
	C434.782013,292.359039 424.804291,292.405487 414.836060,292.198120 
	C403.066467,291.953278 397.613312,282.357819 403.216125,271.404388 
z"/>
<path fill="#2C99A2" opacity="1.000000" stroke="none" 
	d="
M427.715637,538.780579 
	C427.701630,520.595764 427.667847,502.805206 427.671539,485.014648 
	C427.673035,477.789307 428.510468,476.981415 435.676788,476.971436 
	C441.164612,476.963806 446.683624,477.346741 452.134247,476.896179 
	C466.917358,475.674225 476.559082,492.264618 470.822357,506.098083 
	C467.326782,514.527222 460.868500,518.647095 451.728790,518.578979 
	C447.904663,518.550476 444.077393,518.688538 440.256378,518.580872 
	C437.470856,518.502380 436.435486,519.648499 436.493774,522.424744 
	C436.605408,527.741821 436.451843,533.064026 436.441376,538.384216 
	C436.435547,541.354553 435.615875,543.791504 432.186768,543.999512 
	C428.923828,544.197449 427.989746,541.913696 427.715637,538.780579 
M463.006378,494.074799 
	C461.762146,489.398499 459.414703,485.673798 454.088043,485.383453 
	C449.278503,485.121277 444.434296,485.154022 439.627258,485.433197 
	C438.463318,485.500824 436.449463,487.016785 436.416199,487.924988 
	C436.150757,495.171021 436.268066,502.431091 436.268066,509.956421 
	C442.791870,509.956421 448.670898,510.494995 454.369995,509.716553 
	C456.999939,509.357361 460.163177,506.913025 461.480804,504.528137 
	C462.960876,501.849121 462.630249,498.169739 463.006378,494.074799 
z"/>
<path fill="#309AA3" opacity="1.000000" stroke="none" 
	d="
M712.872070,516.836792 
	C712.610168,521.188904 710.069519,522.069763 706.665894,522.052002 
	C696.526245,521.999023 686.386169,522.033020 676.271606,522.033020 
	C675.860840,528.906006 680.842957,534.867920 687.887268,536.118103 
	C692.955811,537.017578 697.802002,536.537231 702.176086,533.400146 
	C704.483887,531.744995 707.322571,529.704224 709.556152,532.934387 
	C711.904541,536.330505 708.931396,538.489136 706.494141,540.222351 
	C697.774719,546.423218 688.415405,546.760010 679.140564,541.981812 
	C669.877808,537.209778 665.975830,528.697754 666.781311,518.749573 
	C667.232361,513.178528 669.124634,507.244934 672.005432,502.460999 
	C676.456482,495.069641 684.002869,491.968842 692.643921,493.147247 
	C701.431763,494.345703 707.470276,499.597229 710.801392,507.720551 
	C711.918518,510.444702 712.201599,513.510925 712.872070,516.836792 
M680.786377,513.991333 
	C688.087402,513.991333 695.388367,513.991333 702.675964,513.991333 
	C702.762756,507.154236 697.330078,501.538513 690.895752,501.337006 
	C682.674500,501.079498 677.062012,505.839691 676.411987,513.742065 
	C677.567505,513.815430 678.720642,513.888672 680.786377,513.991333 
z"/>
<path fill="#379CA3" opacity="1.000000" stroke="none" 
	d="
M655.331421,541.014221 
	C653.236572,542.195984 650.997681,543.945496 649.408081,543.479553 
	C648.050842,543.081726 646.698914,540.168457 646.626282,538.317566 
	C646.312683,530.332886 646.472534,522.329712 646.456482,514.333252 
	C646.439636,505.924896 643.068970,501.609558 636.496338,501.574738 
	C628.135071,501.530426 622.844788,506.531525 622.787231,514.635437 
	C622.732849,522.298645 622.768005,529.962402 622.760559,537.625916 
	C622.757446,540.838867 622.317505,543.898743 618.188904,543.960876 
	C614.005005,544.023926 613.540833,540.934814 613.532471,537.730774 
	C613.501648,525.903320 613.472900,514.075745 613.508240,502.248413 
	C613.517883,499.026215 612.579651,494.658478 617.173035,494.315796 
	C619.405212,494.149231 621.855347,496.905670 623.864441,498.130188 
	C628.389648,496.520660 633.305176,493.706024 638.456543,493.173401 
	C647.729004,492.214661 654.088684,497.406342 654.828064,506.732635 
	C655.719299,517.975098 655.313416,529.320312 655.331421,541.014221 
M649.277771,537.423340 
	C650.599304,538.243164 651.920837,539.062927 653.242371,539.882751 
	C653.689636,539.532593 654.136902,539.182434 654.584106,538.832214 
	C653.893372,528.113708 653.202576,517.395142 652.511841,506.676575 
	C651.709534,506.572144 650.907227,506.467682 650.104919,506.363220 
	C649.408936,508.171875 648.098267,509.988678 648.122070,511.787811 
	C648.231567,520.071045 648.713440,528.349304 649.277771,537.423340 
M639.069946,495.457275 
	C637.085815,496.054596 635.101685,496.651947 633.117554,497.249268 
	C633.205383,497.584656 633.293152,497.920044 633.380981,498.255432 
	C636.809875,498.777527 640.238708,499.299652 643.781616,499.839111 
	C644.383545,496.896271 644.365662,494.294312 639.069946,495.457275 
z"/>
<path fill="#474747" opacity="1.000000" stroke="none" 
	d="
M176.760864,531.950928 
	C176.682907,524.968445 177.031281,518.437378 176.418793,511.997711 
	C175.653351,503.949921 170.407913,499.216675 163.578201,499.404602 
	C155.142044,499.636719 147.257553,506.687897 147.073547,514.524475 
	C146.878159,522.845825 147.124847,531.177368 146.947754,539.499573 
	C146.916412,540.972473 145.755081,542.421326 145.115570,543.881287 
	C144.451965,542.409546 143.246429,540.949524 143.214294,539.464111 
	C143.030670,530.975647 143.225433,522.479553 143.099823,513.988953 
	C142.967850,505.067383 138.513290,499.745789 131.241257,499.478241 
	C122.985451,499.174500 114.875633,506.189423 114.637321,514.228455 
	C114.385765,522.713867 114.604218,531.212463 114.428093,539.701416 
	C114.399117,541.098389 113.397415,542.475098 112.845245,543.861206 
	C112.147629,542.458740 110.861267,541.063354 110.844467,539.652771 
	C110.693718,526.999146 110.699402,514.342102 110.854301,501.688385 
	C110.874611,500.029327 111.996025,498.383759 112.607452,496.731964 
	C113.240562,498.371613 113.917717,499.996277 114.483223,501.658936 
	C114.684776,502.251526 114.615616,502.936218 114.756599,504.601227 
	C119.712845,499.714386 124.459282,495.648682 131.266037,495.953613 
	C138.034515,496.256897 142.611542,499.850494 144.968933,504.618927 
	C150.313965,501.771118 155.037064,498.281067 160.332916,496.644470 
	C170.068878,493.635803 179.160309,499.825012 179.971054,510.039429 
	C180.785751,520.303711 180.506805,530.659302 180.527664,540.975220 
	C180.529678,541.964233 179.259552,542.955872 178.580017,543.946350 
	C177.974411,542.942566 176.937820,541.976379 176.846405,540.927734 
	C176.601501,538.118347 176.761551,535.273682 176.760864,531.950928 
z"/>
<path fill="#2E99A3" opacity="1.000000" stroke="none" 
	d="
M373.734283,542.536682 
	C371.941040,538.777344 369.432098,535.302124 369.202057,531.682068 
	C368.601929,522.239258 369.000061,512.732971 369.000061,503.193756 
	C365.486786,501.640289 359.448273,504.232910 359.637115,497.997681 
	C359.807800,492.361328 364.980988,494.518799 368.987976,493.571381 
	C368.987976,491.491730 368.400330,489.007843 369.153839,487.036682 
	C369.902039,485.079437 371.999786,483.638092 373.505646,481.970490 
	C375.007263,483.621033 377.063080,485.046753 377.850311,486.987152 
	C378.595764,488.824646 378.010559,491.202026 378.010559,493.962677 
	C380.843750,493.962677 383.436371,493.456085 385.672852,494.130524 
	C387.321625,494.627747 389.590790,496.657257 389.603149,498.021942 
	C389.616516,499.503845 387.595856,501.777924 385.995880,502.313446 
	C383.776367,503.056244 381.122070,502.500153 378.135162,502.500153 
	C378.135162,512.740601 377.953735,522.367371 378.366455,531.968506 
	C378.417603,533.158691 381.578491,534.300354 383.387238,535.304382 
	C385.019653,536.210571 386.773926,536.897217 388.474426,537.680725 
	C387.388428,539.506287 386.535431,542.660217 385.171204,542.899475 
	C381.585266,543.528564 377.776825,542.888977 373.734283,542.536682 
z"/>
<path fill="#2E99A3" opacity="1.000000" stroke="none" 
	d="
M592.015625,511.052368 
	C592.030273,517.708862 592.118408,523.875122 592.028381,530.038818 
	C591.969482,534.073364 593.459656,535.808289 597.758423,535.335144 
	C599.222778,535.174072 600.876099,536.729370 602.443054,537.500427 
	C601.566040,539.282776 601.161743,541.788391 599.730957,542.723450 
	C593.198242,546.993042 583.941895,542.472839 583.329346,534.592896 
	C582.775452,527.466858 583.040100,520.276306 582.968994,513.113953 
	C582.936096,509.803802 582.963318,506.493042 582.963318,503.268097 
	C579.353149,501.818024 573.734619,504.034607 573.660095,498.251007 
	C573.582886,492.263336 579.220215,494.666779 582.988892,493.314636 
	C582.988892,491.465485 582.962402,489.516418 582.994995,487.568329 
	C583.044495,484.614044 583.973572,482.048553 587.372742,482.037079 
	C590.969666,482.024963 592.096741,484.569000 592.062500,487.807037 
	C592.043396,489.612274 592.059021,491.417877 592.059021,493.955719 
	C594.713867,493.955719 597.165039,493.412872 599.180237,494.117310 
	C600.984802,494.748108 602.309082,496.752838 603.845276,498.151398 
	C602.361389,499.623932 601.114929,501.741974 599.330811,502.397980 
	C597.313232,503.139801 594.812927,502.569000 592.013611,502.569000 
	C592.013611,505.634460 592.013611,508.097717 592.015625,511.052368 
z"/>
<path fill="#494949" opacity="1.000000" stroke="none" 
	d="
M73.296600,505.900024 
	C77.491470,507.577087 81.350685,509.076691 85.152870,510.709137 
	C94.742447,514.826172 99.102173,521.720459 97.691399,530.401855 
	C96.409424,538.290649 89.807838,544.001526 80.306183,544.933716 
	C71.447968,545.802734 63.440285,543.454651 56.963097,537.143860 
	C55.806644,536.017090 55.543930,533.973145 54.868561,532.352661 
	C56.452831,532.912415 58.431519,533.050354 59.555939,534.101807 
	C65.819695,539.959534 73.041840,542.360352 81.511978,540.963623 
	C87.953354,539.901367 92.332283,536.089478 93.482162,530.548950 
	C94.629234,525.021912 92.129967,519.739319 86.174026,516.601440 
	C81.490547,514.133850 76.439369,512.371582 71.594826,510.199432 
	C69.173576,509.113861 66.705185,508.029358 64.506065,506.570618 
	C55.181190,500.385071 54.829609,486.987915 63.718235,480.202850 
	C72.044228,473.847321 87.295647,474.650482 94.719475,482.065002 
	C95.854088,483.198151 95.997421,485.323883 96.599228,486.990509 
	C95.097397,486.435822 93.247986,486.262878 92.150726,485.263824 
	C85.552589,479.256104 78.085968,478.206573 69.940140,481.105438 
	C65.222450,482.784302 62.031975,486.043823 61.565277,491.274872 
	C61.107342,496.407806 63.265938,500.328552 67.651215,502.978516 
	C69.355164,504.008179 71.170433,504.853638 73.296600,505.900024 
z"/>
<path fill="#3E9AA2" opacity="1.000000" stroke="none" 
	d="
M496.010925,493.710327 
	C503.832794,491.666901 510.484741,493.629730 516.815674,498.117523 
	C517.463379,497.188721 517.762817,496.330475 518.359375,495.983917 
	C520.190125,494.920410 522.269409,493.154022 523.989929,493.411713 
	C525.227539,493.597046 526.757812,496.523285 526.912720,498.333405 
	C527.322510,503.121033 527.055237,507.966522 527.058044,512.789001 
	C527.062744,520.770752 527.050049,528.752625 527.082153,536.734253 
	C527.094299,539.760254 527.504517,543.533997 523.554260,543.783142 
	C521.373535,543.920715 519.034119,541.543091 516.706238,540.266418 
	C512.874146,541.641235 508.221832,544.427612 503.368622,544.838074 
	C489.851288,545.981384 479.668121,534.741028 479.430084,519.435242 
	C479.242645,507.382172 484.840118,498.519440 496.010925,493.710327 
M498.074219,535.833679 
	C509.167511,537.465759 515.963562,533.606262 517.718872,524.186218 
	C518.345459,520.823853 518.321960,517.167053 517.745605,513.789673 
	C516.533752,506.688293 510.454620,501.571686 504.013855,501.577820 
	C496.096497,501.585358 490.667694,506.245300 488.929443,514.008118 
	C486.872498,523.194031 489.962311,530.249023 496.388336,535.934326 
	C494.088409,534.845947 490.602478,534.346375 489.714325,532.557129 
	C487.206055,527.504272 485.763489,521.922363 483.977173,516.768677 
	C487.543762,511.470306 490.360107,505.891327 494.472870,501.536865 
	C499.395752,496.324799 506.474609,499.950897 512.712402,499.637482 
	C512.442810,498.639923 512.459473,498.170258 512.263123,498.050842 
	C500.526184,490.913788 483.132141,500.086212 481.921478,513.837891 
	C481.380066,519.988098 481.592041,525.385559 484.678741,531.349731 
	C488.738556,539.194214 496.239166,540.370728 502.632629,543.862061 
	C503.266083,544.207947 504.600433,543.657410 505.426056,543.195190 
	C508.482971,541.483643 511.350128,539.384216 514.524353,537.953857 
	C515.900635,537.333740 517.910889,537.734070 519.523254,538.124695 
	C521.439453,538.588928 523.237305,539.541626 525.908081,540.611877 
	C526.120972,525.076904 526.184143,510.777374 524.619385,495.565155 
	C518.486328,500.848816 517.046509,505.883636 519.468506,512.076233 
	C521.177429,516.445740 521.029724,520.597351 519.353027,525.358521 
	C517.013794,532.000854 512.375488,537.849792 505.494232,538.813660 
	C502.443085,539.241089 498.843201,539.825806 498.074219,535.833679 
z"/>
<path fill="#329CA4" opacity="1.000000" stroke="none" 
	d="
M722.470337,513.004761 
	C722.490234,509.011749 722.509277,505.517365 722.540466,502.023132 
	C722.569824,498.738190 721.873169,494.409393 726.424133,494.289032 
	C728.598328,494.231476 730.857605,497.392548 733.809998,499.656952 
	C733.899536,499.571381 734.838806,498.101898 736.168457,497.510864 
	C739.992432,495.811188 743.874146,493.800995 747.925354,493.192627 
	C751.179016,492.704010 753.530334,495.204742 752.986206,498.984009 
	C752.466125,502.596924 749.878601,502.705719 746.954773,502.280243 
	C738.124756,500.995300 732.111145,506.154968 731.817017,515.516357 
	C731.587219,522.831238 731.741333,530.158203 731.722290,537.479797 
	C731.714172,540.617737 731.558899,543.791504 727.362183,543.968872 
	C722.783813,544.162292 722.501404,540.742249 722.473328,537.465271 
	C722.404724,529.478577 722.465820,521.490784 722.470337,513.004761 
z"/>
<path fill="#494949" opacity="1.000000" stroke="none" 
	d="
M234.951385,543.739502 
	C233.370377,541.280518 232.178436,538.634705 231.043488,536.115356 
	C225.632919,543.110107 218.153717,546.981995 208.288574,544.096375 
	C206.718307,543.637085 205.135361,542.980469 203.773895,542.086670 
	C194.133392,535.757629 191.496384,526.390259 192.860947,515.593811 
	C194.109253,505.717133 199.022903,498.398010 209.052780,495.700867 
	C218.514679,493.156433 225.877533,496.773285 232.168427,505.562469 
	C232.168427,502.556274 231.952713,500.641571 232.268066,498.818756 
	C232.406052,498.021149 233.629623,497.411377 234.360229,496.716309 
	C234.903748,497.406067 235.926102,498.099823 235.920380,498.785004 
	C235.796021,513.708130 235.557251,528.630371 234.951385,543.739502 
M196.228577,520.335510 
	C196.846024,523.410461 197.056564,526.640991 198.161423,529.529541 
	C200.875702,536.625732 206.086899,541.097900 213.845154,541.343445 
	C221.354294,541.581055 226.828293,537.731567 230.055389,531.014648 
	C233.474899,523.897156 233.583496,516.485046 230.386490,509.334869 
	C225.069687,497.443665 209.497192,494.599823 201.850037,504.530609 
	C198.738937,508.570770 198.025909,514.457581 196.228577,520.335510 
z"/>
<path fill="#2C99A2" opacity="1.000000" stroke="none" 
	d="
M350.090607,512.000000 
	C350.084137,520.828979 350.060547,529.158081 350.079681,537.487000 
	C350.087250,540.786011 349.365784,543.771790 345.449768,543.883423 
	C341.379761,543.999390 340.821625,540.983765 340.825500,537.672729 
	C340.846771,519.514893 340.837494,501.356964 340.781281,483.199249 
	C340.770721,479.782410 341.705444,476.949097 345.582336,477.065369 
	C349.472870,477.182037 350.130402,480.194244 350.109314,483.513550 
	C350.050049,492.842041 350.089844,502.171143 350.090607,512.000000 
z"/>
<path fill="#2F9CA6" opacity="1.000000" stroke="none" 
	d="
M548.329041,500.345337 
	C549.440796,499.854614 550.812622,499.626587 551.619324,498.827820 
	C555.162231,495.319885 559.052856,492.673584 564.286621,492.974304 
	C567.902527,493.182098 570.550903,494.760101 569.986023,498.833160 
	C569.463440,502.600922 566.733337,502.929047 563.584290,502.087677 
	C557.344727,500.420441 553.460388,503.572052 549.984131,508.982239 
	C549.302429,510.248108 549.137268,511.094849 548.972168,511.941620 
	C548.972168,511.941620 549.009033,511.972626 548.747437,511.994019 
	C548.214355,512.138611 547.942810,512.261841 547.671204,512.385010 
	C548.032043,512.592407 548.392822,512.799866 548.753662,513.007263 
	C548.731079,518.036804 548.708557,523.066284 548.274536,528.646729 
	C547.866638,530.456543 547.870178,531.715393 547.873657,532.974304 
	C547.919250,534.056763 547.964844,535.139221 547.700562,536.850281 
	C546.180908,538.867554 544.971252,540.256287 543.761658,541.645020 
	C542.839905,539.890808 541.158813,538.153137 541.120056,536.379639 
	C540.875977,525.229004 540.962952,514.070190 541.022461,502.914520 
	C541.036621,500.255402 539.983765,496.463348 544.165955,496.455231 
	C545.494446,496.452637 546.829529,499.803741 547.935669,501.312195 
	C547.841003,501.544983 548.085022,500.945160 548.329041,500.345337 
z"/>
<path fill="#474747" opacity="1.000000" stroke="none" 
	d="
M280.633118,496.329102 
	C283.490631,496.101990 285.967529,496.101990 289.038788,496.101990 
	C289.038788,492.648590 288.818390,489.520142 289.132843,486.446442 
	C289.287445,484.935272 290.432709,483.525452 291.129669,482.069763 
	C291.747589,483.592010 292.747375,485.076843 292.900970,486.644592 
	C293.187866,489.573242 292.983398,492.550018 292.983398,495.483582 
	C297.324554,495.943939 301.226990,496.357758 305.129425,496.771576 
	C305.075409,497.550201 305.021362,498.328796 304.967346,499.107391 
	C301.148682,499.323425 297.330017,499.539490 293.060822,499.781036 
	C293.060822,511.792236 292.894409,523.754211 293.256195,535.700073 
	C293.305420,537.325562 295.809540,539.134460 297.533600,540.354614 
	C298.566101,541.085327 300.291321,540.837158 301.942474,541.061157 
	C298.690582,545.534485 292.490234,544.916321 290.370300,540.052307 
	C289.349426,537.709900 289.126099,534.884094 289.093781,532.270386 
	C288.960144,521.469971 289.037750,510.666931 289.037750,499.493896 
	C286.594604,499.493896 284.542511,499.814423 282.677368,499.362854 
	C281.699890,499.126221 281.050201,497.535461 280.633118,496.329102 
z"/>
<path fill="#434343" opacity="1.000000" stroke="none" 
	d="
M251.943298,498.478394 
	C253.759521,495.944214 255.053223,496.106476 255.333618,498.969421 
	C255.557663,501.256927 255.378860,503.583862 255.378860,507.197784 
	C257.741486,504.186249 259.160553,502.036621 260.915894,500.210144 
	C264.705536,496.266876 269.394073,494.343597 274.882935,495.202942 
	C275.728485,495.335297 276.347748,496.913025 277.071686,497.822296 
	C276.334412,498.266907 275.607513,499.079620 274.858307,499.100769 
	C264.364166,499.396881 256.760498,506.010956 255.871918,516.588989 
	C255.246048,524.039856 255.682983,531.575073 255.391739,539.062805 
	C255.327835,540.705627 254.188873,542.306519 253.544983,543.926758 
	C252.960632,542.399658 251.881424,540.876465 251.869415,539.344849 
	C251.763550,525.848389 251.847488,512.350464 251.943298,498.478394 
z"/>
<path fill="#3E9AA2" opacity="1.000000" stroke="none" 
	d="
M548.478271,499.963623 
	C548.085022,500.945160 547.841003,501.544983 547.935669,501.312195 
	C546.829529,499.803741 545.494446,496.452637 544.165955,496.455231 
	C539.983765,496.463348 541.036621,500.255402 541.022461,502.914520 
	C540.962952,514.070190 540.875977,525.229004 541.120056,536.379639 
	C541.158813,538.153137 542.839905,539.890808 543.761658,541.645020 
	C544.971252,540.256287 546.180908,538.867554 547.635071,537.252380 
	C549.734131,540.836304 548.208069,543.238403 544.408020,543.872620 
	C540.616516,544.505432 539.464172,541.666687 539.447144,538.578735 
	C539.375366,525.596191 539.433960,512.612671 539.486816,499.629669 
	C539.498596,496.727020 540.364380,494.121582 543.779480,494.011261 
	C547.380066,493.894958 548.654297,496.289185 548.478271,499.963623 
z"/>
<path fill="#E7E7E7" opacity="1.000000" stroke="none" 
	d="
M719.989380,565.992004 
	C719.989380,565.992004 720.000061,566.408569 719.731995,566.798950 
	C723.215942,571.267456 722.736694,575.533081 720.027039,579.897522 
	C718.796082,582.205139 717.114136,582.856567 715.680237,580.355347 
	C714.297729,577.943665 712.197510,574.848389 712.775330,572.684448 
	C713.502869,569.960327 713.786438,564.964172 719.599182,566.002808 
	C720.000000,566.000000 719.989380,565.992004 719.989380,565.992004 
z"/>
<path fill="#757575" opacity="1.000000" stroke="none" 
	d="
M264.547607,578.112305 
	C267.127014,575.435547 266.159180,573.758728 263.558716,572.503967 
	C262.810944,572.143127 262.066559,571.760925 261.287018,571.482666 
	C258.250702,570.398621 256.580963,567.874939 258.174591,565.344849 
	C259.260803,563.620422 262.394958,563.067383 264.718475,562.315125 
	C265.394409,562.096252 266.432312,562.995544 268.709534,564.005493 
	C266.573334,564.005493 265.846985,563.837769 265.240997,564.036743 
	C263.382660,564.646851 261.570435,565.397583 259.740265,566.093567 
	C260.992950,567.577271 261.959686,569.668335 263.556885,570.420288 
	C267.061890,572.070374 269.395905,573.943237 267.325623,578.001770 
	C265.739380,581.111267 262.115173,581.357117 258.134766,578.901245 
	C260.146667,578.704712 262.158936,578.510498 264.547607,578.112305 
z"/>
<path fill="#F3F3F3" opacity="1.000000" stroke="none" 
	d="
M628.013672,576.003784 
	C625.472473,572.866089 628.123474,570.591675 630.049805,568.072205 
	C632.705933,568.925537 635.702393,569.326599 636.319946,570.755676 
	C637.135559,572.643066 636.670288,575.674133 635.590881,577.539612 
	C635.056641,578.462769 631.914856,577.876953 629.952820,577.973877 
	C629.952820,577.973877 630.018860,577.980957 630.028259,577.670654 
	C629.363037,576.908142 628.688354,576.455933 628.013672,576.003784 
z"/>
<path fill="#F3F3F3" opacity="1.000000" stroke="none" 
	d="
M416.998138,570.007202 
	C417.267822,569.498108 417.537476,568.988953 418.318787,568.263062 
	C420.906738,568.366211 422.983063,568.686096 425.059387,569.006042 
	C425.059387,569.006042 424.994751,569.004883 424.746552,569.356812 
	C425.741516,578.054810 424.279694,579.900146 417.956482,577.967102 
	C417.956482,577.967102 418.024780,577.976624 418.010742,577.609253 
	C417.663818,574.830383 417.330994,572.418762 416.998138,570.007202 
z"/>
<path fill="#757575" opacity="1.000000" stroke="none" 
	d="
M164.650482,578.532349 
	C166.002930,574.693726 166.919235,571.064819 167.835526,567.435913 
	C167.974777,567.391479 168.114014,567.347046 168.253265,567.302673 
	C168.253265,571.347961 168.253265,575.393188 168.253265,579.506958 
	C160.353958,580.871338 159.008438,579.488403 159.690323,569.462646 
	C159.804779,571.187927 159.885101,572.916382 160.041779,574.637817 
	C160.271530,577.162231 160.950806,579.279358 164.650482,578.532349 
z"/>
<path fill="#757575" opacity="1.000000" stroke="none" 
	d="
M394.651703,564.664917 
	C392.609406,568.954163 396.034149,569.763367 398.723328,570.851807 
	C402.089874,572.214233 403.750702,574.607483 401.916382,577.813293 
	C400.197113,580.817993 397.205780,581.528992 394.022736,578.890076 
	C394.685547,578.890076 395.476074,579.124817 395.987488,578.846558 
	C397.588104,577.975708 399.083405,576.911255 400.619507,575.921814 
	C399.492676,574.655640 398.601654,572.909363 397.192810,572.217529 
	C393.623535,570.464417 390.373688,568.905640 393.718933,564.200745 
	C394.374268,564.400452 394.513000,564.532715 394.651703,564.664917 
z"/>
<path fill="#494949" opacity="1.000000" stroke="none" 
	d="
M609.925354,562.523315 
	C611.712708,562.695068 613.084045,562.806641 614.455383,562.918274 
	C614.449402,563.203552 614.443420,563.488831 614.437439,563.774109 
	C612.269409,563.903503 610.101318,564.032898 607.674561,564.177734 
	C607.674561,566.467529 607.674561,568.512878 607.674561,570.768860 
	C609.946228,570.966675 611.959045,571.141968 613.971924,571.317261 
	C613.988770,571.584595 614.005615,571.851990 614.022461,572.119385 
	C612.026062,572.342651 610.029663,572.565857 607.711182,572.825134 
	C607.506042,575.273560 607.311707,577.592224 607.117432,579.910889 
	C606.720642,579.894836 606.323914,579.878723 605.927124,579.862671 
	C605.927124,574.784851 605.772705,569.697510 606.087280,564.639221 
	C606.136597,563.846008 608.315247,563.185181 609.925354,562.523315 
z"/>
<path fill="#757575" opacity="1.000000" stroke="none" 
	d="
M694.074402,570.164551 
	C696.057983,567.732788 697.687317,565.130615 700.024048,561.398743 
	C697.728149,568.274963 695.866272,573.851196 694.247864,578.698364 
	C692.636414,574.055786 690.684143,568.431152 688.731812,562.806519 
	C688.969910,562.657288 689.207947,562.507996 689.446045,562.358765 
	C690.870789,564.903870 692.295532,567.449036 694.074402,570.164551 
z"/>
<path fill="#E7E7E7" opacity="1.000000" stroke="none" 
	d="
M91.987076,570.968018 
	C93.606880,568.988403 94.891800,565.890869 96.922394,565.282654 
	C100.245514,564.287109 101.392769,567.483093 101.576828,570.708374 
	C98.073471,574.288574 95.021347,573.382996 91.987076,570.968018 
z"/>
<path fill="#424242" opacity="1.000000" stroke="none" 
	d="
M135.299149,568.745789 
	C135.362350,569.427551 135.425568,570.109253 135.721390,571.188721 
	C135.693298,572.059143 135.432587,572.531799 135.171875,573.004517 
	C134.444962,576.712769 134.976715,579.579407 139.639008,579.898926 
	C137.865234,579.898926 136.091446,579.898926 133.972046,579.898926 
	C133.972046,574.281799 133.972046,568.755188 133.972046,562.596375 
	C136.555847,562.753418 139.144226,562.910645 141.732590,563.067932 
	C141.714432,563.371643 141.696274,563.675415 141.678116,563.979126 
	C140.065872,563.979126 138.453613,563.979126 136.149841,564.024597 
	C135.397690,564.574341 135.337036,565.078552 135.276367,565.582825 
	C135.276367,565.582825 135.152802,565.920105 135.139771,566.398438 
	C135.184219,567.499756 135.241684,568.122742 135.299149,568.745789 
z"/>
<path fill="#676767" opacity="1.000000" stroke="none" 
	d="
M315.143219,572.950439 
	C317.534668,572.299194 319.545563,571.734070 321.810913,571.097473 
	C321.810913,573.969360 321.810913,576.723938 321.810913,580.611755 
	C318.566406,579.805847 315.676544,579.088013 312.786682,578.370178 
	C313.445343,576.592346 314.104004,574.814453 315.143219,572.950439 
M318.479736,573.893616 
	C317.033813,574.957886 315.587891,576.022156 314.141998,577.086426 
	C315.125793,577.693054 316.279785,578.976746 317.061584,578.780151 
	C319.466278,578.175659 321.198822,576.768494 318.479736,573.893616 
z"/>
<path fill="#757575" opacity="1.000000" stroke="none" 
	d="
M70.154495,567.488403 
	C69.373184,568.007507 68.236084,568.626099 67.969933,569.507629 
	C66.898285,573.056885 66.095802,576.687378 65.193893,580.287903 
	C64.778786,580.269104 64.363678,580.250305 63.948566,580.231506 
	C63.299541,577.975342 62.650517,575.719177 61.619469,572.135010 
	C63.350643,573.486938 63.981953,573.979980 64.793541,574.613770 
	C66.094658,570.650452 67.410843,566.641296 68.879677,562.167114 
	C69.410896,564.398376 69.804962,566.053589 70.154495,567.488403 
z"/>
<path fill="#757575" opacity="1.000000" stroke="none" 
	d="
M289.785522,567.692810 
	C290.913116,567.680908 291.682068,567.500488 292.220001,567.374268 
	C291.663269,571.491272 291.099976,575.656494 290.536713,579.821777 
	C290.218811,579.858093 289.900909,579.894409 289.583008,579.930725 
	C289.421661,577.870911 289.409241,575.784973 289.054321,573.759094 
	C288.739838,571.963928 288.044586,570.235352 287.517395,568.477417 
	C285.870758,569.129211 284.224121,569.781006 282.647552,570.405029 
	C282.375519,566.973511 283.912445,566.248047 289.785522,567.692810 
z"/>
<path fill="#676767" opacity="1.000000" stroke="none" 
	d="
M518.425842,568.410522 
	C520.904907,568.302429 525.096802,567.348450 525.539978,568.245728 
	C526.839050,570.876526 527.436584,574.413940 526.820435,577.275696 
	C526.180298,580.248596 523.229370,581.332947 519.973267,579.543701 
	C519.896790,579.125305 520.210876,578.749634 520.590210,578.789551 
	C525.462280,578.154480 526.848633,576.237671 525.885986,571.794067 
	C524.982300,567.622559 522.315369,567.629211 518.947205,568.932495 
	C518.778748,568.753296 518.425842,568.410522 518.425842,568.410522 
z"/>
<path fill="#676767" opacity="1.000000" stroke="none" 
	d="
M629.781860,578.318481 
	C631.914856,577.876953 635.056641,578.462769 635.590881,577.539612 
	C636.670288,575.674133 637.135559,572.643066 636.319946,570.755676 
	C635.702393,569.326599 632.705933,568.925537 630.356079,568.040222 
	C632.742920,565.801147 635.526184,566.123596 637.445679,568.897400 
	C639.710876,572.170837 639.655029,575.935425 636.869568,578.884277 
	C634.721680,581.158081 631.957581,581.220215 629.781860,578.318481 
z"/>
<path fill="#676767" opacity="1.000000" stroke="none" 
	d="
M484.809357,566.894043 
	C485.552582,567.434265 486.322418,568.357361 486.283905,568.392395 
	C482.598602,571.746704 482.795105,577.129150 486.766632,579.981384 
	C485.237854,580.011230 485.237854,580.011230 481.013733,567.085327 
	C482.198151,567.008667 483.328369,566.935547 484.809357,566.894043 
z"/>
<path fill="#494949" opacity="1.000000" stroke="none" 
	d="
M466.379639,567.560181 
	C466.788177,571.453430 466.788177,575.379578 466.788177,579.472107 
	C463.579163,579.442810 459.705353,582.304688 457.476532,577.784424 
	C459.580078,577.970642 462.408417,579.069946 463.799438,578.102539 
	C465.157288,577.158203 465.128967,574.119141 465.552551,571.968872 
	C465.834351,570.538269 465.841187,569.053589 466.379639,567.560181 
z"/>
<path fill="#494949" opacity="1.000000" stroke="none" 
	d="
M223.744476,577.981262 
	C224.880798,574.152649 226.278702,570.268188 222.038132,567.999207 
	C223.042419,565.682922 223.989426,563.498779 225.487213,560.044250 
	C225.487213,567.391785 225.487213,573.473938 225.487213,579.556091 
	C225.195297,579.406677 224.903366,579.257263 224.234375,578.799683 
	C223.819687,578.321350 223.782074,578.151306 223.744476,577.981262 
z"/>
<path fill="#F3F3F3" opacity="1.000000" stroke="none" 
	d="
M217.957275,579.044250 
	C212.917313,576.291870 212.875214,574.608154 218.016434,567.244385 
	C218.016434,571.165466 218.016434,574.615845 218.007538,578.532471 
	C217.998657,578.998596 217.957275,579.044250 217.957275,579.044250 
z"/>
<path fill="#757575" opacity="1.000000" stroke="none" 
	d="
M743.081299,580.038086 
	C744.552917,575.864136 746.024536,571.690247 747.674927,567.009216 
	C747.674927,571.307861 747.674927,575.233276 747.674927,579.729919 
	C746.593018,579.729919 745.237915,579.729919 743.460632,579.873718 
	C743.038391,580.017517 743.081299,580.038086 743.081299,580.038086 
z"/>
<path fill="#676767" opacity="1.000000" stroke="none" 
	d="
M417.739380,578.302612 
	C424.279694,579.900146 425.741516,578.054810 424.749390,569.324585 
	C428.005157,572.370850 427.521515,575.944275 424.713318,578.968384 
	C422.562012,581.285034 419.805756,581.290466 417.739380,578.302612 
z"/>
<path fill="#676767" opacity="1.000000" stroke="none" 
	d="
M91.888367,571.390869 
	C95.021347,573.382996 98.073471,574.288574 101.558380,571.093750 
	C101.083740,572.086975 100.372276,573.649475 99.333908,573.910217 
	C97.498650,574.371033 95.464355,574.039307 92.609673,574.039307 
	C93.957016,576.316345 94.905701,577.919678 96.502388,580.618103 
	C91.842621,578.335938 91.243866,575.376648 91.888367,571.390869 
z"/>
<path fill="#757575" opacity="1.000000" stroke="none" 
	d="
M720.392456,579.856323 
	C722.736694,575.533081 723.215942,571.267456 719.747559,567.006714 
	C725.428711,570.603943 725.720093,575.813843 720.392456,579.856323 
z"/>
<path fill="#E7E7E7" opacity="1.000000" stroke="none" 
	d="
M141.964890,574.069519 
	C140.128723,570.523865 140.874924,567.665283 144.711533,564.302368 
	C144.428772,568.136292 144.236267,570.746399 143.689362,573.712524 
	C142.878296,574.068909 142.421585,574.069214 141.964890,574.069519 
z"/>
<path fill="#676767" opacity="1.000000" stroke="none" 
	d="
M519.738647,579.312256 
	C515.398193,576.524292 515.973816,572.790161 518.152954,568.627075 
	C518.425842,568.410522 518.778748,568.753296 518.891724,569.300659 
	C519.406799,572.815247 519.808838,575.782410 520.210876,578.749634 
	C520.210876,578.749634 519.896790,579.125305 519.738647,579.312256 
z"/>
<path fill="#676767" opacity="1.000000" stroke="none" 
	d="
M416.662537,570.131348 
	C417.330994,572.418762 417.663818,574.830383 418.011383,577.643738 
	C414.125092,576.176208 415.519867,573.151794 416.662537,570.131348 
z"/>
<path fill="#757575" opacity="1.000000" stroke="none" 
	d="
M394.040344,564.057129 
	C395.953735,561.871826 398.111145,560.872253 400.725952,563.748230 
	C401.001038,563.981018 401.004578,563.961182 401.004578,563.961182 
	C399.119049,564.073730 397.233490,564.186218 394.999817,564.481812 
	C394.513000,564.532715 394.374268,564.400452 394.040344,564.057129 
z"/>
<path fill="#F3F3F3" opacity="1.000000" stroke="none" 
	d="
M223.371826,577.977478 
	C223.782074,578.151306 223.819687,578.321350 223.945541,578.737305 
	C222.043045,579.208496 220.052307,579.433777 218.009430,579.351685 
	C217.957275,579.044250 217.998657,578.998596 218.017670,578.973328 
	C219.690842,578.623291 221.345001,578.298523 223.371826,577.977478 
z"/>
<path fill="#757575" opacity="1.000000" stroke="none" 
	d="
M281.894775,575.272095 
	C281.889343,574.488892 281.889343,573.922791 281.889343,573.356750 
	C281.988678,573.352661 282.088043,573.348572 282.187378,573.344482 
	C282.300934,574.257324 282.414459,575.170227 282.528015,576.083069 
	C282.383514,576.026428 282.207825,576.002686 282.103333,575.903809 
	C281.998596,575.804688 281.964966,575.630432 281.894775,575.272095 
z"/>
<path fill="#FBFBFB" opacity="1.000000" stroke="none" 
	d="
M141.863007,574.344482 
	C142.421585,574.069214 142.878296,574.068909 143.677597,574.069702 
	C144.216949,575.226013 144.413696,576.381165 144.610443,577.536255 
	C144.255768,577.692261 143.901077,577.848328 143.546387,578.004333 
	C142.951294,576.876038 142.356201,575.747681 141.863007,574.344482 
z"/>
<path fill="#676767" opacity="1.000000" stroke="none" 
	d="
M424.955933,568.636658 
	C422.983063,568.686096 420.906738,568.366211 418.428101,567.995850 
	C420.301392,568.052734 422.576935,568.160034 424.955933,568.636658 
z"/>
<path fill="#3E9AA2" opacity="1.000000" stroke="none" 
	d="
M547.954956,532.635132 
	C547.870178,531.715393 547.866638,530.456543 548.148621,529.095825 
	C548.301514,530.094727 548.168884,531.195374 547.954956,532.635132 
z"/>
<path fill="#FBFBFB" opacity="1.000000" stroke="none" 
	d="
M135.702209,568.785950 
	C135.241684,568.122742 135.184219,567.499756 135.193542,566.569763 
	C136.056488,566.537354 136.852661,566.811829 137.648834,567.086365 
	C137.134308,567.666260 136.619797,568.246216 135.702209,568.785950 
z"/>
<path fill="#FBFBFB" opacity="1.000000" stroke="none" 
	d="
M135.495911,572.997559 
	C135.432587,572.531799 135.693298,572.059143 135.970215,571.295410 
	C136.514297,571.283997 137.042160,571.563538 137.570023,571.843140 
	C136.986649,572.225647 136.403290,572.608154 135.495911,572.997559 
z"/>
<path fill="#676767" opacity="1.000000" stroke="none" 
	d="
M628.042725,576.365356 
	C628.688354,576.455933 629.363037,576.908142 630.028931,577.703857 
	C629.370728,577.607300 628.721252,577.167175 628.042725,576.365356 
z"/>
<path fill="#3E9AA2" opacity="1.000000" stroke="none" 
	d="
M549.180603,511.696533 
	C549.137268,511.094849 549.302429,510.248108 549.730042,509.204407 
	C549.791321,509.822113 549.590149,510.636780 549.180603,511.696533 
z"/>
<path fill="#3E9AA2" opacity="1.000000" stroke="none" 
	d="
M548.874146,512.765625 
	C548.392822,512.799866 548.032043,512.592407 547.671204,512.385010 
	C547.942810,512.261841 548.214355,512.138611 548.724182,512.000244 
	C548.973206,512.164734 548.983948,512.344421 548.874146,512.765625 
z"/>
<path fill="#757575" opacity="1.000000" stroke="none" 
	d="
M62.015701,571.515381 
	C62.105865,571.514648 62.015312,571.491150 62.015312,571.491150 
	C62.015312,571.491150 61.925533,571.516174 62.015701,571.515381 
z"/>
<path fill="#757575" opacity="1.000000" stroke="none" 
	d="
M743.027649,579.996826 
	C742.740295,580.169373 742.463745,580.362610 742.559570,580.295654 
	C742.309875,580.353821 742.531250,580.302246 742.916992,580.144348 
	C743.081299,580.038086 743.038391,580.017517 743.027649,579.996826 
z"/>
<path fill="#E7E7E7" opacity="1.000000" stroke="none" 
	d="
M720.004089,566.005310 
	C720.093750,565.969360 720.179382,565.928162 720.127197,565.939453 
	C719.989380,565.992004 720.000000,566.000000 720.004089,566.005310 
z"/>
<path fill="#757575" opacity="1.000000" stroke="none" 
	d="
M400.997528,563.985901 
	C400.994019,563.990784 401.134369,563.957397 401.069458,563.959290 
	C401.004578,563.961182 401.001038,563.981018 400.997528,563.985901 
z"/>
<path fill="#E7E7E7" opacity="1.000000" stroke="none" 
	d="
M135.512817,565.245300 
	C135.337036,565.078552 135.397690,564.574341 135.738144,564.099304 
	C135.928375,564.388306 135.838821,564.648071 135.512817,565.245300 
z"/>
<path fill="#EFFAFA" opacity="1.000000" stroke="none" 
	d="
M463.046875,494.500183 
	C462.630249,498.169739 462.960876,501.849121 461.480804,504.528137 
	C460.163177,506.913025 456.999939,509.357361 454.369995,509.716553 
	C448.670898,510.494995 442.791870,509.956421 436.268066,509.956421 
	C436.268066,502.431091 436.150757,495.171021 436.416199,487.924988 
	C436.449463,487.016785 438.463318,485.500824 439.627258,485.433197 
	C444.434296,485.154022 449.278503,485.121277 454.088043,485.383453 
	C459.414703,485.673798 461.762146,489.398499 463.046875,494.500183 
z"/>
<path fill="#EFFAFA" opacity="1.000000" stroke="none" 
	d="
M680.330078,513.976562 
	C678.720642,513.888672 677.567505,513.815430 676.411987,513.742065 
	C677.062012,505.839691 682.674500,501.079498 690.895752,501.337006 
	C697.330078,501.538513 702.762756,507.154236 702.675964,513.991333 
	C695.388367,513.991333 688.087402,513.991333 680.330078,513.976562 
z"/>
<path fill="#209CA6" opacity="1.000000" stroke="none" 
	d="
M649.169739,537.026367 
	C648.713440,528.349304 648.231567,520.071045 648.122070,511.787811 
	C648.098267,509.988678 649.408936,508.171875 650.104919,506.363220 
	C650.907227,506.467682 651.709534,506.572144 652.511841,506.676575 
	C653.202576,517.395142 653.893372,528.113708 654.584106,538.832214 
	C654.136902,539.182434 653.689636,539.532593 653.242371,539.882751 
	C651.920837,539.062927 650.599304,538.243164 649.169739,537.026367 
z"/>
<path fill="#209CA6" opacity="1.000000" stroke="none" 
	d="
M639.456055,495.316345 
	C644.365662,494.294312 644.383545,496.896271 643.781616,499.839111 
	C640.238708,499.299652 636.809875,498.777527 633.380981,498.255432 
	C633.293152,497.920044 633.205383,497.584656 633.117554,497.249268 
	C635.101685,496.651947 637.085815,496.054596 639.456055,495.316345 
z"/>
<path fill="#F5FCFC" opacity="1.000000" stroke="none" 
	d="
M497.194946,535.824097 
	C489.962311,530.249023 486.872498,523.194031 488.929443,514.008118 
	C490.667694,506.245300 496.096497,501.585358 504.013855,501.577820 
	C510.454620,501.571686 516.533752,506.688293 517.745605,513.789673 
	C518.321960,517.167053 518.345459,520.823853 517.718872,524.186218 
	C515.963562,533.606262 509.167511,537.465759 497.558167,535.924072 
	C497.042145,536.014404 497.194946,535.824097 497.194946,535.824097 
z"/>
<path fill="#209CA6" opacity="1.000000" stroke="none" 
	d="
M497.106781,535.912842 
	C498.843201,539.825806 502.443085,539.241089 505.494232,538.813660 
	C512.375488,537.849792 517.013794,532.000854 519.353027,525.358521 
	C521.029724,520.597351 521.177429,516.445740 519.468506,512.076233 
	C517.046509,505.883636 518.486328,500.848816 524.619385,495.565155 
	C526.184143,510.777374 526.120972,525.076904 525.908081,540.611877 
	C523.237305,539.541626 521.439453,538.588928 519.523254,538.124695 
	C517.910889,537.734070 515.900635,537.333740 514.524353,537.953857 
	C511.350128,539.384216 508.482971,541.483643 505.426056,543.195190 
	C504.600433,543.657410 503.266083,544.207947 502.632629,543.862061 
	C496.239166,540.370728 488.738556,539.194214 484.678741,531.349731 
	C481.592041,525.385559 481.380066,519.988098 481.921478,513.837891 
	C483.132141,500.086212 500.526184,490.913788 512.263123,498.050842 
	C512.459473,498.170258 512.442810,498.639923 512.712402,499.637482 
	C506.474609,499.950897 499.395752,496.324799 494.472870,501.536865 
	C490.360107,505.891327 487.543762,511.470306 483.977173,516.768677 
	C485.763489,521.922363 487.206055,527.504272 489.714325,532.557129 
	C490.602478,534.346375 494.088409,534.845947 496.791626,535.879211 
	C497.194946,535.824097 497.042145,536.014404 497.106781,535.912842 
z"/>
<path fill="#FBFBFB" opacity="1.000000" stroke="none" 
	d="
M196.225189,519.919800 
	C198.025909,514.457581 198.738937,508.570770 201.850037,504.530609 
	C209.497192,494.599823 225.069687,497.443665 230.386490,509.334869 
	C233.583496,516.485046 233.474899,523.897156 230.055389,531.014648 
	C226.828293,537.731567 221.354294,541.581055 213.845154,541.343445 
	C206.086899,541.097900 200.875702,536.625732 198.161423,529.529541 
	C197.056564,526.640991 196.846024,523.410461 196.225189,519.919800 
z"/>
<path fill="#F3F3F3" opacity="1.000000" stroke="none" 
	d="
M318.893250,573.917358 
	C321.198822,576.768494 319.466278,578.175659 317.061584,578.780151 
	C316.279785,578.976746 315.125793,577.693054 314.141998,577.086426 
	C315.587891,576.022156 317.033813,574.957886 318.893250,573.917358 
z"/>
<path fill="#F3F3F3" opacity="1.000000" stroke="none" 
	d="
M520.590210,578.789551 
	C519.808838,575.782410 519.406799,572.815247 519.060181,569.479858 
	C522.315369,567.629211 524.982300,567.622559 525.885986,571.794067 
	C526.848633,576.237671 525.462280,578.154480 520.590210,578.789551 
z"/>
</svg>